<mxfile host="65bd71144e">
    <diagram id="kjD_bFSPLRh8bYi8rMR6" name="Landing">
        <mxGraphModel dx="1204" dy="800" grid="1" gridSize="10" guides="1" tooltips="1" connect="1" arrows="1" fold="1" page="1" pageScale="1" pageWidth="850" pageHeight="1100" math="0" shadow="0">
            <root>
                <mxCell id="0"/>
                <mxCell id="1" parent="0"/>
                <mxCell id="2" value="" style="rounded=0;whiteSpace=wrap;html=1;" vertex="1" parent="1">
                    <mxGeometry width="850" height="60" as="geometry"/>
                </mxCell>
                <mxCell id="3" value="View Listings" style="rounded=1;whiteSpace=wrap;html=1;" vertex="1" parent="1">
                    <mxGeometry x="730" width="120" height="60" as="geometry"/>
                </mxCell>
                <mxCell id="4" value="Add Item" style="rounded=1;whiteSpace=wrap;html=1;" vertex="1" parent="1">
                    <mxGeometry x="610" width="120" height="60" as="geometry"/>
                </mxCell>
                <mxCell id="5" value="Login" style="rounded=1;whiteSpace=wrap;html=1;" vertex="1" parent="1">
                    <mxGeometry x="490" width="120" height="60" as="geometry"/>
                </mxCell>
                <mxCell id="6" value="African Marketplace" style="shape=parallelogram;perimeter=parallelogramPerimeter;whiteSpace=wrap;html=1;fixedSize=1;" vertex="1" parent="1">
                    <mxGeometry width="180" height="60" as="geometry"/>
                </mxCell>
                <mxCell id="7" value="" style="rounded=1;whiteSpace=wrap;html=1;" vertex="1" parent="1">
                    <mxGeometry x="40" y="120" width="240" height="210" as="geometry"/>
                </mxCell>
                <mxCell id="12" value="" style="rounded=0;whiteSpace=wrap;html=1;" vertex="1" parent="1">
                    <mxGeometry x="320" y="120" width="480" height="200" as="geometry"/>
                </mxCell>
                <mxCell id="13" value="" style="rounded=1;whiteSpace=wrap;html=1;" vertex="1" parent="1">
                    <mxGeometry x="440" y="360" width="360" height="560" as="geometry"/>
                </mxCell>
                <mxCell id="14" value="" style="rounded=0;whiteSpace=wrap;html=1;" vertex="1" parent="1">
                    <mxGeometry x="40" y="360" width="360" height="240" as="geometry"/>
                </mxCell>
                <mxCell id="15" value="" style="ellipse;whiteSpace=wrap;html=1;aspect=fixed;" vertex="1" parent="1">
                    <mxGeometry x="70" y="630" width="300" height="300" as="geometry"/>
                </mxCell>
            </root>
        </mxGraphModel>
    </diagram>
    <diagram id="-HhSgspvtsYtjXKYbBDk" name="Login">
        <mxGraphModel dx="1204" dy="800" grid="1" gridSize="10" guides="1" tooltips="1" connect="1" arrows="1" fold="1" page="1" pageScale="1" pageWidth="850" pageHeight="1100" math="0" shadow="0">
            <root>
                <mxCell id="TlQSk_6jMYSxvZWNqP2H-0"/>
                <mxCell id="TlQSk_6jMYSxvZWNqP2H-1" parent="TlQSk_6jMYSxvZWNqP2H-0"/>
                <mxCell id="g1BIfaBYVwsFgJaCAnaR-0" value="" style="rounded=0;whiteSpace=wrap;html=1;" vertex="1" parent="TlQSk_6jMYSxvZWNqP2H-1">
                    <mxGeometry width="850" height="60" as="geometry"/>
                </mxCell>
                <mxCell id="g1BIfaBYVwsFgJaCAnaR-1" value="View Listings" style="rounded=1;whiteSpace=wrap;html=1;" vertex="1" parent="TlQSk_6jMYSxvZWNqP2H-1">
                    <mxGeometry x="730" width="120" height="60" as="geometry"/>
                </mxCell>
                <mxCell id="g1BIfaBYVwsFgJaCAnaR-2" value="Add Item" style="rounded=1;whiteSpace=wrap;html=1;" vertex="1" parent="TlQSk_6jMYSxvZWNqP2H-1">
                    <mxGeometry x="610" width="120" height="60" as="geometry"/>
                </mxCell>
                <mxCell id="g1BIfaBYVwsFgJaCAnaR-3" value="Login" style="rounded=1;whiteSpace=wrap;html=1;" vertex="1" parent="TlQSk_6jMYSxvZWNqP2H-1">
                    <mxGeometry x="490" width="120" height="60" as="geometry"/>
                </mxCell>
                <mxCell id="g1BIfaBYVwsFgJaCAnaR-4" value="African Marketplace" style="shape=parallelogram;perimeter=parallelogramPerimeter;whiteSpace=wrap;html=1;fixedSize=1;" vertex="1" parent="TlQSk_6jMYSxvZWNqP2H-1">
                    <mxGeometry width="180" height="60" as="geometry"/>
                </mxCell>
                <mxCell id="g1BIfaBYVwsFgJaCAnaR-5" value="" style="rounded=0;whiteSpace=wrap;html=1;" vertex="1" parent="TlQSk_6jMYSxvZWNqP2H-1">
                    <mxGeometry x="270" y="200" width="310" height="40" as="geometry"/>
                </mxCell>
                <mxCell id="g1BIfaBYVwsFgJaCAnaR-7" value="&lt;b&gt;&lt;font style=&quot;font-size: 32px&quot;&gt;Username&lt;/font&gt;&lt;/b&gt;" style="text;html=1;align=center;verticalAlign=middle;resizable=0;points=[];autosize=1;strokeColor=none;fillColor=none;" vertex="1" parent="TlQSk_6jMYSxvZWNqP2H-1">
                    <mxGeometry x="340" y="160" width="170" height="30" as="geometry"/>
                </mxCell>
                <mxCell id="g1BIfaBYVwsFgJaCAnaR-8" value="" style="rounded=0;whiteSpace=wrap;html=1;" vertex="1" parent="TlQSk_6jMYSxvZWNqP2H-1">
                    <mxGeometry x="270" y="300" width="310" height="40" as="geometry"/>
                </mxCell>
                <mxCell id="g1BIfaBYVwsFgJaCAnaR-9" value="&lt;b&gt;&lt;font style=&quot;font-size: 32px&quot;&gt;Password&lt;/font&gt;&lt;/b&gt;" style="text;html=1;align=center;verticalAlign=middle;resizable=0;points=[];autosize=1;strokeColor=none;fillColor=none;" vertex="1" parent="TlQSk_6jMYSxvZWNqP2H-1">
                    <mxGeometry x="340" y="260" width="170" height="30" as="geometry"/>
                </mxCell>
                <mxCell id="g1BIfaBYVwsFgJaCAnaR-10" value="Login" style="rounded=1;whiteSpace=wrap;html=1;fontSize=32;" vertex="1" parent="TlQSk_6jMYSxvZWNqP2H-1">
                    <mxGeometry x="345" y="380" width="160" height="60" as="geometry"/>
                </mxCell>
            </root>
        </mxGraphModel>
    </diagram>
    <diagram id="MlEQOfxNB1TkhVwa3l83" name="User View">
        <mxGraphModel dx="1204" dy="800" grid="1" gridSize="10" guides="1" tooltips="1" connect="1" arrows="1" fold="1" page="1" pageScale="1" pageWidth="850" pageHeight="1100" math="0" shadow="0">
            <root>
                <mxCell id="gxV1sqEJlLxV9qNviU45-0"/>
                <mxCell id="gxV1sqEJlLxV9qNviU45-1" parent="gxV1sqEJlLxV9qNviU45-0"/>
                <mxCell id="Mt1WUb5HpdETsg6IPKax-0" value="" style="rounded=0;whiteSpace=wrap;html=1;" vertex="1" parent="gxV1sqEJlLxV9qNviU45-1">
                    <mxGeometry width="850" height="60" as="geometry"/>
                </mxCell>
                <mxCell id="Mt1WUb5HpdETsg6IPKax-1" value="View Listings" style="rounded=1;whiteSpace=wrap;html=1;" vertex="1" parent="gxV1sqEJlLxV9qNviU45-1">
                    <mxGeometry x="730" width="120" height="60" as="geometry"/>
                </mxCell>
                <mxCell id="Mt1WUb5HpdETsg6IPKax-2" value="Add Item" style="rounded=1;whiteSpace=wrap;html=1;" vertex="1" parent="gxV1sqEJlLxV9qNviU45-1">
                    <mxGeometry x="610" width="120" height="60" as="geometry"/>
                </mxCell>
                <mxCell id="Mt1WUb5HpdETsg6IPKax-3" value="Logout" style="rounded=1;whiteSpace=wrap;html=1;" vertex="1" parent="gxV1sqEJlLxV9qNviU45-1">
                    <mxGeometry x="490" width="120" height="60" as="geometry"/>
                </mxCell>
                <mxCell id="Mt1WUb5HpdETsg6IPKax-4" value="African Marketplace" style="shape=parallelogram;perimeter=parallelogramPerimeter;whiteSpace=wrap;html=1;fixedSize=1;" vertex="1" parent="gxV1sqEJlLxV9qNviU45-1">
                    <mxGeometry width="180" height="60" as="geometry"/>
                </mxCell>
                <mxCell id="Mt1WUb5HpdETsg6IPKax-34" value="Item Description" style="rounded=1;whiteSpace=wrap;html=1;fontSize=31;" vertex="1" parent="gxV1sqEJlLxV9qNviU45-1">
                    <mxGeometry x="50" y="140" width="520" height="80" as="geometry"/>
                </mxCell>
                <mxCell id="Mt1WUb5HpdETsg6IPKax-35" value="Img" style="whiteSpace=wrap;html=1;aspect=fixed;fontSize=31;" vertex="1" parent="gxV1sqEJlLxV9qNviU45-1">
                    <mxGeometry x="40" y="100" width="120" height="120" as="geometry"/>
                </mxCell>
                <mxCell id="Mt1WUb5HpdETsg6IPKax-36" value="Item Name" style="text;html=1;align=center;verticalAlign=middle;resizable=0;points=[];autosize=1;strokeColor=none;fillColor=none;fontSize=31;" vertex="1" parent="gxV1sqEJlLxV9qNviU45-1">
                    <mxGeometry x="160" y="100" width="170" height="40" as="geometry"/>
                </mxCell>
                <mxCell id="Mt1WUb5HpdETsg6IPKax-37" value="$0.00" style="text;html=1;align=center;verticalAlign=middle;resizable=0;points=[];autosize=1;strokeColor=none;fillColor=none;fontSize=31;" vertex="1" parent="gxV1sqEJlLxV9qNviU45-1">
                    <mxGeometry x="480" y="100" width="90" height="40" as="geometry"/>
                </mxCell>
                <mxCell id="Mt1WUb5HpdETsg6IPKax-38" value="Item Description" style="rounded=1;whiteSpace=wrap;html=1;fontSize=31;" vertex="1" parent="gxV1sqEJlLxV9qNviU45-1">
                    <mxGeometry x="50" y="270" width="520" height="80" as="geometry"/>
                </mxCell>
                <mxCell id="Mt1WUb5HpdETsg6IPKax-39" value="Img" style="whiteSpace=wrap;html=1;aspect=fixed;fontSize=31;" vertex="1" parent="gxV1sqEJlLxV9qNviU45-1">
                    <mxGeometry x="40" y="230" width="120" height="120" as="geometry"/>
                </mxCell>
                <mxCell id="Mt1WUb5HpdETsg6IPKax-40" value="Item Name" style="text;html=1;align=center;verticalAlign=middle;resizable=0;points=[];autosize=1;strokeColor=none;fillColor=none;fontSize=31;" vertex="1" parent="gxV1sqEJlLxV9qNviU45-1">
                    <mxGeometry x="160" y="230" width="170" height="40" as="geometry"/>
                </mxCell>
                <mxCell id="Mt1WUb5HpdETsg6IPKax-41" value="$0.00" style="text;html=1;align=center;verticalAlign=middle;resizable=0;points=[];autosize=1;strokeColor=none;fillColor=none;fontSize=31;" vertex="1" parent="gxV1sqEJlLxV9qNviU45-1">
                    <mxGeometry x="480" y="230" width="90" height="40" as="geometry"/>
                </mxCell>
                <mxCell id="Mt1WUb5HpdETsg6IPKax-42" value="Item Description" style="rounded=1;whiteSpace=wrap;html=1;fontSize=31;" vertex="1" parent="gxV1sqEJlLxV9qNviU45-1">
                    <mxGeometry x="50" y="400" width="520" height="80" as="geometry"/>
                </mxCell>
                <mxCell id="Mt1WUb5HpdETsg6IPKax-43" value="Img" style="whiteSpace=wrap;html=1;aspect=fixed;fontSize=31;" vertex="1" parent="gxV1sqEJlLxV9qNviU45-1">
                    <mxGeometry x="40" y="360" width="120" height="120" as="geometry"/>
                </mxCell>
                <mxCell id="Mt1WUb5HpdETsg6IPKax-44" value="Item Name" style="text;html=1;align=center;verticalAlign=middle;resizable=0;points=[];autosize=1;strokeColor=none;fillColor=none;fontSize=31;" vertex="1" parent="gxV1sqEJlLxV9qNviU45-1">
                    <mxGeometry x="160" y="360" width="170" height="40" as="geometry"/>
                </mxCell>
                <mxCell id="Mt1WUb5HpdETsg6IPKax-45" value="$0.00" style="text;html=1;align=center;verticalAlign=middle;resizable=0;points=[];autosize=1;strokeColor=none;fillColor=none;fontSize=31;" vertex="1" parent="gxV1sqEJlLxV9qNviU45-1">
                    <mxGeometry x="480" y="360" width="90" height="40" as="geometry"/>
                </mxCell>
                <mxCell id="Mt1WUb5HpdETsg6IPKax-46" value="Item Description" style="rounded=1;whiteSpace=wrap;html=1;fontSize=31;" vertex="1" parent="gxV1sqEJlLxV9qNviU45-1">
                    <mxGeometry x="50" y="530" width="520" height="80" as="geometry"/>
                </mxCell>
                <mxCell id="Mt1WUb5HpdETsg6IPKax-47" value="Img" style="whiteSpace=wrap;html=1;aspect=fixed;fontSize=31;" vertex="1" parent="gxV1sqEJlLxV9qNviU45-1">
                    <mxGeometry x="40" y="490" width="120" height="120" as="geometry"/>
                </mxCell>
                <mxCell id="Mt1WUb5HpdETsg6IPKax-48" value="Item Name" style="text;html=1;align=center;verticalAlign=middle;resizable=0;points=[];autosize=1;strokeColor=none;fillColor=none;fontSize=31;" vertex="1" parent="gxV1sqEJlLxV9qNviU45-1">
                    <mxGeometry x="160" y="490" width="170" height="40" as="geometry"/>
                </mxCell>
                <mxCell id="Mt1WUb5HpdETsg6IPKax-49" value="$0.00" style="text;html=1;align=center;verticalAlign=middle;resizable=0;points=[];autosize=1;strokeColor=none;fillColor=none;fontSize=31;" vertex="1" parent="gxV1sqEJlLxV9qNviU45-1">
                    <mxGeometry x="480" y="490" width="90" height="40" as="geometry"/>
                </mxCell>
                <mxCell id="Mt1WUb5HpdETsg6IPKax-50" value="Item Description" style="rounded=1;whiteSpace=wrap;html=1;fontSize=31;" vertex="1" parent="gxV1sqEJlLxV9qNviU45-1">
                    <mxGeometry x="50" y="660" width="520" height="80" as="geometry"/>
                </mxCell>
                <mxCell id="Mt1WUb5HpdETsg6IPKax-51" value="Img" style="whiteSpace=wrap;html=1;aspect=fixed;fontSize=31;" vertex="1" parent="gxV1sqEJlLxV9qNviU45-1">
                    <mxGeometry x="40" y="620" width="120" height="120" as="geometry"/>
                </mxCell>
                <mxCell id="Mt1WUb5HpdETsg6IPKax-52" value="Item Name" style="text;html=1;align=center;verticalAlign=middle;resizable=0;points=[];autosize=1;strokeColor=none;fillColor=none;fontSize=31;" vertex="1" parent="gxV1sqEJlLxV9qNviU45-1">
                    <mxGeometry x="160" y="620" width="170" height="40" as="geometry"/>
                </mxCell>
                <mxCell id="Mt1WUb5HpdETsg6IPKax-53" value="$0.00" style="text;html=1;align=center;verticalAlign=middle;resizable=0;points=[];autosize=1;strokeColor=none;fillColor=none;fontSize=31;" vertex="1" parent="gxV1sqEJlLxV9qNviU45-1">
                    <mxGeometry x="480" y="620" width="90" height="40" as="geometry"/>
                </mxCell>
                <mxCell id="Mt1WUb5HpdETsg6IPKax-55" value="Buy" style="shape=step;perimeter=stepPerimeter;whiteSpace=wrap;html=1;fixedSize=1;fontSize=31;" vertex="1" parent="gxV1sqEJlLxV9qNviU45-1">
                    <mxGeometry x="600" y="140" width="120" height="80" as="geometry"/>
                </mxCell>
                <mxCell id="Mt1WUb5HpdETsg6IPKax-56" value="Buy" style="shape=step;perimeter=stepPerimeter;whiteSpace=wrap;html=1;fixedSize=1;fontSize=31;" vertex="1" parent="gxV1sqEJlLxV9qNviU45-1">
                    <mxGeometry x="600" y="270" width="120" height="80" as="geometry"/>
                </mxCell>
                <mxCell id="Mt1WUb5HpdETsg6IPKax-57" value="Buy" style="shape=step;perimeter=stepPerimeter;whiteSpace=wrap;html=1;fixedSize=1;fontSize=31;" vertex="1" parent="gxV1sqEJlLxV9qNviU45-1">
                    <mxGeometry x="600" y="410" width="120" height="80" as="geometry"/>
                </mxCell>
                <mxCell id="Mt1WUb5HpdETsg6IPKax-58" value="Buy" style="shape=step;perimeter=stepPerimeter;whiteSpace=wrap;html=1;fixedSize=1;fontSize=31;" vertex="1" parent="gxV1sqEJlLxV9qNviU45-1">
                    <mxGeometry x="600" y="530" width="120" height="80" as="geometry"/>
                </mxCell>
                <mxCell id="Mt1WUb5HpdETsg6IPKax-59" value="Buy" style="shape=step;perimeter=stepPerimeter;whiteSpace=wrap;html=1;fixedSize=1;fontSize=31;" vertex="1" parent="gxV1sqEJlLxV9qNviU45-1">
                    <mxGeometry x="600" y="660" width="120" height="80" as="geometry"/>
                </mxCell>
                <mxCell id="IqcljOBVOdQuEnvuhFfa-0" value="Item Description" style="rounded=1;whiteSpace=wrap;html=1;fontSize=31;" vertex="1" parent="gxV1sqEJlLxV9qNviU45-1">
                    <mxGeometry x="50" y="790" width="520" height="80" as="geometry"/>
                </mxCell>
                <mxCell id="IqcljOBVOdQuEnvuhFfa-1" value="Img" style="whiteSpace=wrap;html=1;aspect=fixed;fontSize=31;" vertex="1" parent="gxV1sqEJlLxV9qNviU45-1">
                    <mxGeometry x="40" y="750" width="120" height="120" as="geometry"/>
                </mxCell>
                <mxCell id="IqcljOBVOdQuEnvuhFfa-2" value="Item Name" style="text;html=1;align=center;verticalAlign=middle;resizable=0;points=[];autosize=1;strokeColor=none;fillColor=none;fontSize=31;" vertex="1" parent="gxV1sqEJlLxV9qNviU45-1">
                    <mxGeometry x="160" y="750" width="170" height="40" as="geometry"/>
                </mxCell>
                <mxCell id="IqcljOBVOdQuEnvuhFfa-3" value="$0.00" style="text;html=1;align=center;verticalAlign=middle;resizable=0;points=[];autosize=1;strokeColor=none;fillColor=none;fontSize=31;" vertex="1" parent="gxV1sqEJlLxV9qNviU45-1">
                    <mxGeometry x="480" y="750" width="90" height="40" as="geometry"/>
                </mxCell>
                <mxCell id="IqcljOBVOdQuEnvuhFfa-4" value="Buy" style="shape=step;perimeter=stepPerimeter;whiteSpace=wrap;html=1;fixedSize=1;fontSize=31;" vertex="1" parent="gxV1sqEJlLxV9qNviU45-1">
                    <mxGeometry x="600" y="790" width="120" height="80" as="geometry"/>
                </mxCell>
                <mxCell id="IqcljOBVOdQuEnvuhFfa-5" value="Item Description" style="rounded=1;whiteSpace=wrap;html=1;fontSize=31;" vertex="1" parent="gxV1sqEJlLxV9qNviU45-1">
                    <mxGeometry x="50" y="920" width="520" height="80" as="geometry"/>
                </mxCell>
                <mxCell id="IqcljOBVOdQuEnvuhFfa-6" value="Img" style="whiteSpace=wrap;html=1;aspect=fixed;fontSize=31;" vertex="1" parent="gxV1sqEJlLxV9qNviU45-1">
                    <mxGeometry x="40" y="880" width="120" height="120" as="geometry"/>
                </mxCell>
                <mxCell id="IqcljOBVOdQuEnvuhFfa-7" value="Item Name" style="text;html=1;align=center;verticalAlign=middle;resizable=0;points=[];autosize=1;strokeColor=none;fillColor=none;fontSize=31;" vertex="1" parent="gxV1sqEJlLxV9qNviU45-1">
                    <mxGeometry x="160" y="880" width="170" height="40" as="geometry"/>
                </mxCell>
                <mxCell id="IqcljOBVOdQuEnvuhFfa-8" value="$0.00" style="text;html=1;align=center;verticalAlign=middle;resizable=0;points=[];autosize=1;strokeColor=none;fillColor=none;fontSize=31;" vertex="1" parent="gxV1sqEJlLxV9qNviU45-1">
                    <mxGeometry x="480" y="880" width="90" height="40" as="geometry"/>
                </mxCell>
                <mxCell id="IqcljOBVOdQuEnvuhFfa-9" value="Buy" style="shape=step;perimeter=stepPerimeter;whiteSpace=wrap;html=1;fixedSize=1;fontSize=31;" vertex="1" parent="gxV1sqEJlLxV9qNviU45-1">
                    <mxGeometry x="600" y="920" width="120" height="80" as="geometry"/>
                </mxCell>
            </root>
        </mxGraphModel>
    </diagram>
    <diagram id="8KnvzKIlukT5kfLI9spZ" name="Add Item">
        <mxGraphModel dx="1204" dy="800" grid="1" gridSize="10" guides="1" tooltips="1" connect="1" arrows="1" fold="1" page="1" pageScale="1" pageWidth="850" pageHeight="1100" background="none" math="0" shadow="0">
            <root>
                <mxCell id="Z7-GAmdGAAYXMUFoB-d4-0"/>
                <mxCell id="Z7-GAmdGAAYXMUFoB-d4-1" parent="Z7-GAmdGAAYXMUFoB-d4-0"/>
                <mxCell id="gsi-QoncqjpnF4GqT63_-0" value="" style="rounded=0;whiteSpace=wrap;html=1;" vertex="1" parent="Z7-GAmdGAAYXMUFoB-d4-1">
                    <mxGeometry width="850" height="60" as="geometry"/>
                </mxCell>
                <mxCell id="gsi-QoncqjpnF4GqT63_-1" value="View Listings" style="rounded=1;whiteSpace=wrap;html=1;" vertex="1" parent="Z7-GAmdGAAYXMUFoB-d4-1">
                    <mxGeometry x="730" width="120" height="60" as="geometry"/>
                </mxCell>
                <mxCell id="gsi-QoncqjpnF4GqT63_-2" value="Add Item" style="rounded=1;whiteSpace=wrap;html=1;" vertex="1" parent="Z7-GAmdGAAYXMUFoB-d4-1">
                    <mxGeometry x="610" width="120" height="60" as="geometry"/>
                </mxCell>
                <mxCell id="gsi-QoncqjpnF4GqT63_-3" value="Logout" style="rounded=1;whiteSpace=wrap;html=1;" vertex="1" parent="Z7-GAmdGAAYXMUFoB-d4-1">
                    <mxGeometry x="490" width="120" height="60" as="geometry"/>
                </mxCell>
                <mxCell id="gsi-QoncqjpnF4GqT63_-4" value="African Marketplace" style="shape=parallelogram;perimeter=parallelogramPerimeter;whiteSpace=wrap;html=1;fixedSize=1;" vertex="1" parent="Z7-GAmdGAAYXMUFoB-d4-1">
                    <mxGeometry width="180" height="60" as="geometry"/>
                </mxCell>
                <mxCell id="cqVL73PyFVHWF1fBmLYX-0" value="" style="rounded=0;whiteSpace=wrap;html=1;" vertex="1" parent="Z7-GAmdGAAYXMUFoB-d4-1">
                    <mxGeometry x="95" y="340" width="310" height="40" as="geometry"/>
                </mxCell>
                <mxCell id="cqVL73PyFVHWF1fBmLYX-1" value="&lt;b&gt;&lt;font style=&quot;font-size: 32px&quot;&gt;Item Name&lt;/font&gt;&lt;/b&gt;" style="text;html=1;align=center;verticalAlign=middle;resizable=0;points=[];autosize=1;strokeColor=none;fillColor=none;" vertex="1" parent="Z7-GAmdGAAYXMUFoB-d4-1">
                    <mxGeometry x="95" y="310" width="180" height="30" as="geometry"/>
                </mxCell>
                <mxCell id="cqVL73PyFVHWF1fBmLYX-2" value="" style="rounded=0;whiteSpace=wrap;html=1;" vertex="1" parent="Z7-GAmdGAAYXMUFoB-d4-1">
                    <mxGeometry x="95" y="460" width="660" height="40" as="geometry"/>
                </mxCell>
                <mxCell id="cqVL73PyFVHWF1fBmLYX-3" value="&lt;b&gt;&lt;font style=&quot;font-size: 32px&quot;&gt;Item Description&lt;/font&gt;&lt;/b&gt;" style="text;html=1;align=center;verticalAlign=middle;resizable=0;points=[];autosize=1;strokeColor=none;fillColor=none;" vertex="1" parent="Z7-GAmdGAAYXMUFoB-d4-1">
                    <mxGeometry x="95" y="430" width="270" height="30" as="geometry"/>
                </mxCell>
                <mxCell id="cqVL73PyFVHWF1fBmLYX-4" value="List Item" style="rounded=1;whiteSpace=wrap;html=1;fontSize=32;" vertex="1" parent="Z7-GAmdGAAYXMUFoB-d4-1">
                    <mxGeometry x="345" y="550" width="160" height="60" as="geometry"/>
                </mxCell>
                <mxCell id="cqVL73PyFVHWF1fBmLYX-5" value="" style="endArrow=none;dashed=1;html=1;dashPattern=1 3;strokeWidth=2;fontSize=31;" edge="1" parent="Z7-GAmdGAAYXMUFoB-d4-1">
                    <mxGeometry width="50" height="50" relative="1" as="geometry">
                        <mxPoint x="15" y="240" as="sourcePoint"/>
                        <mxPoint x="835" y="240" as="targetPoint"/>
                    </mxGeometry>
                </mxCell>
                <mxCell id="cqVL73PyFVHWF1fBmLYX-6" value="Add Listing" style="whiteSpace=wrap;html=1;fontSize=31;" vertex="1" parent="Z7-GAmdGAAYXMUFoB-d4-1">
                    <mxGeometry x="80" y="110" width="307" height="60" as="geometry"/>
                </mxCell>
                <mxCell id="cqVL73PyFVHWF1fBmLYX-8" value="" style="rounded=0;whiteSpace=wrap;html=1;" vertex="1" parent="Z7-GAmdGAAYXMUFoB-d4-1">
                    <mxGeometry x="445" y="340" width="310" height="40" as="geometry"/>
                </mxCell>
                <mxCell id="cqVL73PyFVHWF1fBmLYX-9" value="&lt;b&gt;&lt;font style=&quot;font-size: 32px&quot;&gt;Item Price&lt;/font&gt;&lt;/b&gt;" style="text;html=1;align=center;verticalAlign=middle;resizable=0;points=[];autosize=1;strokeColor=none;fillColor=none;" vertex="1" parent="Z7-GAmdGAAYXMUFoB-d4-1">
                    <mxGeometry x="445" y="310" width="170" height="30" as="geometry"/>
                </mxCell>
                <mxCell id="SfmX8oCYYcqFyAQyu8RX-0" value="Price Assistance" style="whiteSpace=wrap;html=1;fontSize=31;" vertex="1" parent="Z7-GAmdGAAYXMUFoB-d4-1">
                    <mxGeometry x="460" y="110" width="307" height="60" as="geometry"/>
                </mxCell>
            </root>
        </mxGraphModel>
    </diagram>
    <diagram id="xApuNEUV7w1NrHy5bvOw" name="Price Assistance">
        <mxGraphModel dx="1204" dy="800" grid="1" gridSize="10" guides="1" tooltips="1" connect="1" arrows="1" fold="1" page="1" pageScale="1" pageWidth="850" pageHeight="1100" math="0" shadow="0">
            <root>
                <mxCell id="FDRzwRMpqVcfgFtQDrqc-0"/>
                <mxCell id="FDRzwRMpqVcfgFtQDrqc-1" parent="FDRzwRMpqVcfgFtQDrqc-0"/>
                <mxCell id="9N2MICiFupSykUe2615e-0" value="" style="rounded=0;whiteSpace=wrap;html=1;" vertex="1" parent="FDRzwRMpqVcfgFtQDrqc-1">
                    <mxGeometry width="850" height="60" as="geometry"/>
                </mxCell>
                <mxCell id="9N2MICiFupSykUe2615e-1" value="View Listings" style="rounded=1;whiteSpace=wrap;html=1;" vertex="1" parent="FDRzwRMpqVcfgFtQDrqc-1">
                    <mxGeometry x="730" width="120" height="60" as="geometry"/>
                </mxCell>
                <mxCell id="9N2MICiFupSykUe2615e-2" value="Add Item" style="rounded=1;whiteSpace=wrap;html=1;" vertex="1" parent="FDRzwRMpqVcfgFtQDrqc-1">
                    <mxGeometry x="610" width="120" height="60" as="geometry"/>
                </mxCell>
                <mxCell id="9N2MICiFupSykUe2615e-3" value="Logout" style="rounded=1;whiteSpace=wrap;html=1;" vertex="1" parent="FDRzwRMpqVcfgFtQDrqc-1">
                    <mxGeometry x="490" width="120" height="60" as="geometry"/>
                </mxCell>
                <mxCell id="9N2MICiFupSykUe2615e-4" value="African Marketplace" style="shape=parallelogram;perimeter=parallelogramPerimeter;whiteSpace=wrap;html=1;fixedSize=1;" vertex="1" parent="FDRzwRMpqVcfgFtQDrqc-1">
                    <mxGeometry width="180" height="60" as="geometry"/>
                </mxCell>
                <mxCell id="rLPXvx7WUAVT2X6v5B6Q-0" value="" style="whiteSpace=wrap;html=1;fontSize=31;" vertex="1" parent="FDRzwRMpqVcfgFtQDrqc-1">
                    <mxGeometry x="80" y="120" width="690" height="40" as="geometry"/>
                </mxCell>
                <mxCell id="rLPXvx7WUAVT2X6v5B6Q-1" value="Change Catagory" style="rounded=1;whiteSpace=wrap;html=1;fontSize=31;" vertex="1" parent="FDRzwRMpqVcfgFtQDrqc-1">
                    <mxGeometry x="245" y="120" width="360" height="40" as="geometry"/>
                </mxCell>
                <mxCell id="rLPXvx7WUAVT2X6v5B6Q-2" value="" style="endArrow=classic;html=1;fontSize=31;" edge="1" parent="FDRzwRMpqVcfgFtQDrqc-1" source="rLPXvx7WUAVT2X6v5B6Q-1">
                    <mxGeometry width="50" height="50" relative="1" as="geometry">
                        <mxPoint x="400" y="220" as="sourcePoint"/>
                        <mxPoint x="425" y="240" as="targetPoint"/>
                    </mxGeometry>
                </mxCell>
                <mxCell id="rLPXvx7WUAVT2X6v5B6Q-3" value="" style="whiteSpace=wrap;html=1;fontSize=31;" vertex="1" parent="FDRzwRMpqVcfgFtQDrqc-1">
                    <mxGeometry x="440" y="170" width="140" height="120" as="geometry"/>
                </mxCell>
                <mxCell id="rLPXvx7WUAVT2X6v5B6Q-4" value="Animal Product" style="rounded=0;whiteSpace=wrap;html=1;fontSize=17;" vertex="1" parent="FDRzwRMpqVcfgFtQDrqc-1">
                    <mxGeometry x="440" y="170" width="140" height="30" as="geometry"/>
                </mxCell>
                <mxCell id="rLPXvx7WUAVT2X6v5B6Q-5" value="Beans" style="rounded=0;whiteSpace=wrap;html=1;fontSize=28;" vertex="1" parent="FDRzwRMpqVcfgFtQDrqc-1">
                    <mxGeometry x="440" y="200" width="140" height="30" as="geometry"/>
                </mxCell>
                <mxCell id="rLPXvx7WUAVT2X6v5B6Q-6" value="Fruits" style="rounded=0;whiteSpace=wrap;html=1;fontSize=28;" vertex="1" parent="FDRzwRMpqVcfgFtQDrqc-1">
                    <mxGeometry x="440" y="230" width="140" height="30" as="geometry"/>
                </mxCell>
                <mxCell id="rLPXvx7WUAVT2X6v5B6Q-7" value="Vegetables" style="rounded=0;whiteSpace=wrap;html=1;fontSize=24;" vertex="1" parent="FDRzwRMpqVcfgFtQDrqc-1">
                    <mxGeometry x="440" y="260" width="140" height="30" as="geometry"/>
                </mxCell>
                <mxCell id="JreZ1okk4TFF5N9eNoXU-0" value="" style="rounded=0;whiteSpace=wrap;html=1;fontSize=31;" vertex="1" parent="FDRzwRMpqVcfgFtQDrqc-1">
                    <mxGeometry x="50" y="400" width="350" height="40" as="geometry"/>
                </mxCell>
                <mxCell id="JreZ1okk4TFF5N9eNoXU-1" value="Name" style="shape=process;whiteSpace=wrap;html=1;backgroundOutline=1;fontSize=31;" vertex="1" parent="FDRzwRMpqVcfgFtQDrqc-1">
                    <mxGeometry x="50" y="400" width="120" height="40" as="geometry"/>
                </mxCell>
                <mxCell id="JreZ1okk4TFF5N9eNoXU-2" value="$0.00" style="text;html=1;strokeColor=none;fillColor=none;align=center;verticalAlign=middle;whiteSpace=wrap;rounded=0;fontSize=31;" vertex="1" parent="FDRzwRMpqVcfgFtQDrqc-1">
                    <mxGeometry x="320" y="405" width="70" height="30" as="geometry"/>
                </mxCell>
                <mxCell id="JreZ1okk4TFF5N9eNoXU-3" value="" style="endArrow=none;html=1;fontSize=28;" edge="1" parent="FDRzwRMpqVcfgFtQDrqc-1">
                    <mxGeometry width="50" height="50" relative="1" as="geometry">
                        <mxPoint x="10" y="360" as="sourcePoint"/>
                        <mxPoint x="840" y="360" as="targetPoint"/>
                    </mxGeometry>
                </mxCell>
                <mxCell id="JreZ1okk4TFF5N9eNoXU-7" value="" style="rounded=0;whiteSpace=wrap;html=1;fontSize=31;" vertex="1" parent="FDRzwRMpqVcfgFtQDrqc-1">
                    <mxGeometry x="460" y="400" width="350" height="40" as="geometry"/>
                </mxCell>
                <mxCell id="JreZ1okk4TFF5N9eNoXU-8" value="Name" style="shape=process;whiteSpace=wrap;html=1;backgroundOutline=1;fontSize=31;" vertex="1" parent="FDRzwRMpqVcfgFtQDrqc-1">
                    <mxGeometry x="460" y="400" width="120" height="40" as="geometry"/>
                </mxCell>
                <mxCell id="JreZ1okk4TFF5N9eNoXU-9" value="$0.00" style="text;html=1;strokeColor=none;fillColor=none;align=center;verticalAlign=middle;whiteSpace=wrap;rounded=0;fontSize=31;" vertex="1" parent="FDRzwRMpqVcfgFtQDrqc-1">
                    <mxGeometry x="730" y="405" width="70" height="30" as="geometry"/>
                </mxCell>
                <mxCell id="JreZ1okk4TFF5N9eNoXU-10" value="" style="rounded=0;whiteSpace=wrap;html=1;fontSize=31;" vertex="1" parent="FDRzwRMpqVcfgFtQDrqc-1">
                    <mxGeometry x="50" y="460" width="350" height="40" as="geometry"/>
                </mxCell>
                <mxCell id="JreZ1okk4TFF5N9eNoXU-11" value="Name" style="shape=process;whiteSpace=wrap;html=1;backgroundOutline=1;fontSize=31;" vertex="1" parent="FDRzwRMpqVcfgFtQDrqc-1">
                    <mxGeometry x="50" y="460" width="120" height="40" as="geometry"/>
                </mxCell>
                <mxCell id="JreZ1okk4TFF5N9eNoXU-12" value="$0.00" style="text;html=1;strokeColor=none;fillColor=none;align=center;verticalAlign=middle;whiteSpace=wrap;rounded=0;fontSize=31;" vertex="1" parent="FDRzwRMpqVcfgFtQDrqc-1">
                    <mxGeometry x="320" y="465" width="70" height="30" as="geometry"/>
                </mxCell>
                <mxCell id="JreZ1okk4TFF5N9eNoXU-13" value="" style="rounded=0;whiteSpace=wrap;html=1;fontSize=31;" vertex="1" parent="FDRzwRMpqVcfgFtQDrqc-1">
                    <mxGeometry x="460" y="460" width="350" height="40" as="geometry"/>
                </mxCell>
                <mxCell id="JreZ1okk4TFF5N9eNoXU-14" value="Name" style="shape=process;whiteSpace=wrap;html=1;backgroundOutline=1;fontSize=31;" vertex="1" parent="FDRzwRMpqVcfgFtQDrqc-1">
                    <mxGeometry x="460" y="460" width="120" height="40" as="geometry"/>
                </mxCell>
                <mxCell id="JreZ1okk4TFF5N9eNoXU-15" value="$0.00" style="text;html=1;strokeColor=none;fillColor=none;align=center;verticalAlign=middle;whiteSpace=wrap;rounded=0;fontSize=31;" vertex="1" parent="FDRzwRMpqVcfgFtQDrqc-1">
                    <mxGeometry x="730" y="465" width="70" height="30" as="geometry"/>
                </mxCell>
                <mxCell id="JreZ1okk4TFF5N9eNoXU-16" value="" style="rounded=0;whiteSpace=wrap;html=1;fontSize=31;" vertex="1" parent="FDRzwRMpqVcfgFtQDrqc-1">
                    <mxGeometry x="50" y="520" width="350" height="40" as="geometry"/>
                </mxCell>
                <mxCell id="JreZ1okk4TFF5N9eNoXU-17" value="Name" style="shape=process;whiteSpace=wrap;html=1;backgroundOutline=1;fontSize=31;" vertex="1" parent="FDRzwRMpqVcfgFtQDrqc-1">
                    <mxGeometry x="50" y="520" width="120" height="40" as="geometry"/>
                </mxCell>
                <mxCell id="JreZ1okk4TFF5N9eNoXU-18" value="$0.00" style="text;html=1;strokeColor=none;fillColor=none;align=center;verticalAlign=middle;whiteSpace=wrap;rounded=0;fontSize=31;" vertex="1" parent="FDRzwRMpqVcfgFtQDrqc-1">
                    <mxGeometry x="320" y="525" width="70" height="30" as="geometry"/>
                </mxCell>
                <mxCell id="JreZ1okk4TFF5N9eNoXU-19" value="" style="rounded=0;whiteSpace=wrap;html=1;fontSize=31;" vertex="1" parent="FDRzwRMpqVcfgFtQDrqc-1">
                    <mxGeometry x="460" y="520" width="350" height="40" as="geometry"/>
                </mxCell>
                <mxCell id="JreZ1okk4TFF5N9eNoXU-20" value="Name" style="shape=process;whiteSpace=wrap;html=1;backgroundOutline=1;fontSize=31;" vertex="1" parent="FDRzwRMpqVcfgFtQDrqc-1">
                    <mxGeometry x="460" y="520" width="120" height="40" as="geometry"/>
                </mxCell>
                <mxCell id="JreZ1okk4TFF5N9eNoXU-21" value="$0.00" style="text;html=1;strokeColor=none;fillColor=none;align=center;verticalAlign=middle;whiteSpace=wrap;rounded=0;fontSize=31;" vertex="1" parent="FDRzwRMpqVcfgFtQDrqc-1">
                    <mxGeometry x="730" y="525" width="70" height="30" as="geometry"/>
                </mxCell>
                <mxCell id="JreZ1okk4TFF5N9eNoXU-22" value="" style="rounded=0;whiteSpace=wrap;html=1;fontSize=31;" vertex="1" parent="FDRzwRMpqVcfgFtQDrqc-1">
                    <mxGeometry x="50" y="580" width="350" height="40" as="geometry"/>
                </mxCell>
                <mxCell id="JreZ1okk4TFF5N9eNoXU-23" value="Name" style="shape=process;whiteSpace=wrap;html=1;backgroundOutline=1;fontSize=31;" vertex="1" parent="FDRzwRMpqVcfgFtQDrqc-1">
                    <mxGeometry x="50" y="580" width="120" height="40" as="geometry"/>
                </mxCell>
                <mxCell id="JreZ1okk4TFF5N9eNoXU-24" value="$0.00" style="text;html=1;strokeColor=none;fillColor=none;align=center;verticalAlign=middle;whiteSpace=wrap;rounded=0;fontSize=31;" vertex="1" parent="FDRzwRMpqVcfgFtQDrqc-1">
                    <mxGeometry x="320" y="585" width="70" height="30" as="geometry"/>
                </mxCell>
                <mxCell id="JreZ1okk4TFF5N9eNoXU-25" value="" style="rounded=0;whiteSpace=wrap;html=1;fontSize=31;" vertex="1" parent="FDRzwRMpqVcfgFtQDrqc-1">
                    <mxGeometry x="460" y="580" width="350" height="40" as="geometry"/>
                </mxCell>
                <mxCell id="JreZ1okk4TFF5N9eNoXU-26" value="Name" style="shape=process;whiteSpace=wrap;html=1;backgroundOutline=1;fontSize=31;" vertex="1" parent="FDRzwRMpqVcfgFtQDrqc-1">
                    <mxGeometry x="460" y="580" width="120" height="40" as="geometry"/>
                </mxCell>
                <mxCell id="JreZ1okk4TFF5N9eNoXU-27" value="$0.00" style="text;html=1;strokeColor=none;fillColor=none;align=center;verticalAlign=middle;whiteSpace=wrap;rounded=0;fontSize=31;" vertex="1" parent="FDRzwRMpqVcfgFtQDrqc-1">
                    <mxGeometry x="730" y="585" width="70" height="30" as="geometry"/>
                </mxCell>
                <mxCell id="JreZ1okk4TFF5N9eNoXU-28" value="" style="rounded=0;whiteSpace=wrap;html=1;fontSize=31;" vertex="1" parent="FDRzwRMpqVcfgFtQDrqc-1">
                    <mxGeometry x="50" y="640" width="350" height="40" as="geometry"/>
                </mxCell>
                <mxCell id="JreZ1okk4TFF5N9eNoXU-29" value="Name" style="shape=process;whiteSpace=wrap;html=1;backgroundOutline=1;fontSize=31;" vertex="1" parent="FDRzwRMpqVcfgFtQDrqc-1">
                    <mxGeometry x="50" y="640" width="120" height="40" as="geometry"/>
                </mxCell>
                <mxCell id="JreZ1okk4TFF5N9eNoXU-30" value="$0.00" style="text;html=1;strokeColor=none;fillColor=none;align=center;verticalAlign=middle;whiteSpace=wrap;rounded=0;fontSize=31;" vertex="1" parent="FDRzwRMpqVcfgFtQDrqc-1">
                    <mxGeometry x="320" y="645" width="70" height="30" as="geometry"/>
                </mxCell>
                <mxCell id="JreZ1okk4TFF5N9eNoXU-31" value="" style="rounded=0;whiteSpace=wrap;html=1;fontSize=31;" vertex="1" parent="FDRzwRMpqVcfgFtQDrqc-1">
                    <mxGeometry x="460" y="640" width="350" height="40" as="geometry"/>
                </mxCell>
                <mxCell id="JreZ1okk4TFF5N9eNoXU-32" value="Name" style="shape=process;whiteSpace=wrap;html=1;backgroundOutline=1;fontSize=31;" vertex="1" parent="FDRzwRMpqVcfgFtQDrqc-1">
                    <mxGeometry x="460" y="640" width="120" height="40" as="geometry"/>
                </mxCell>
                <mxCell id="JreZ1okk4TFF5N9eNoXU-33" value="$0.00" style="text;html=1;strokeColor=none;fillColor=none;align=center;verticalAlign=middle;whiteSpace=wrap;rounded=0;fontSize=31;" vertex="1" parent="FDRzwRMpqVcfgFtQDrqc-1">
                    <mxGeometry x="730" y="645" width="70" height="30" as="geometry"/>
                </mxCell>
                <mxCell id="JreZ1okk4TFF5N9eNoXU-34" value="" style="rounded=0;whiteSpace=wrap;html=1;fontSize=31;" vertex="1" parent="FDRzwRMpqVcfgFtQDrqc-1">
                    <mxGeometry x="50" y="700" width="350" height="40" as="geometry"/>
                </mxCell>
                <mxCell id="JreZ1okk4TFF5N9eNoXU-35" value="Name" style="shape=process;whiteSpace=wrap;html=1;backgroundOutline=1;fontSize=31;" vertex="1" parent="FDRzwRMpqVcfgFtQDrqc-1">
                    <mxGeometry x="50" y="700" width="120" height="40" as="geometry"/>
                </mxCell>
                <mxCell id="JreZ1okk4TFF5N9eNoXU-36" value="$0.00" style="text;html=1;strokeColor=none;fillColor=none;align=center;verticalAlign=middle;whiteSpace=wrap;rounded=0;fontSize=31;" vertex="1" parent="FDRzwRMpqVcfgFtQDrqc-1">
                    <mxGeometry x="320" y="705" width="70" height="30" as="geometry"/>
                </mxCell>
                <mxCell id="JreZ1okk4TFF5N9eNoXU-37" value="" style="rounded=0;whiteSpace=wrap;html=1;fontSize=31;" vertex="1" parent="FDRzwRMpqVcfgFtQDrqc-1">
                    <mxGeometry x="460" y="700" width="350" height="40" as="geometry"/>
                </mxCell>
                <mxCell id="JreZ1okk4TFF5N9eNoXU-38" value="Name" style="shape=process;whiteSpace=wrap;html=1;backgroundOutline=1;fontSize=31;" vertex="1" parent="FDRzwRMpqVcfgFtQDrqc-1">
                    <mxGeometry x="460" y="700" width="120" height="40" as="geometry"/>
                </mxCell>
                <mxCell id="JreZ1okk4TFF5N9eNoXU-39" value="$0.00" style="text;html=1;strokeColor=none;fillColor=none;align=center;verticalAlign=middle;whiteSpace=wrap;rounded=0;fontSize=31;" vertex="1" parent="FDRzwRMpqVcfgFtQDrqc-1">
                    <mxGeometry x="730" y="705" width="70" height="30" as="geometry"/>
                </mxCell>
                <mxCell id="JreZ1okk4TFF5N9eNoXU-40" value="" style="rounded=0;whiteSpace=wrap;html=1;fontSize=31;" vertex="1" parent="FDRzwRMpqVcfgFtQDrqc-1">
                    <mxGeometry x="50" y="760" width="350" height="40" as="geometry"/>
                </mxCell>
                <mxCell id="JreZ1okk4TFF5N9eNoXU-41" value="Name" style="shape=process;whiteSpace=wrap;html=1;backgroundOutline=1;fontSize=31;" vertex="1" parent="FDRzwRMpqVcfgFtQDrqc-1">
                    <mxGeometry x="50" y="760" width="120" height="40" as="geometry"/>
                </mxCell>
                <mxCell id="JreZ1okk4TFF5N9eNoXU-42" value="$0.00" style="text;html=1;strokeColor=none;fillColor=none;align=center;verticalAlign=middle;whiteSpace=wrap;rounded=0;fontSize=31;" vertex="1" parent="FDRzwRMpqVcfgFtQDrqc-1">
                    <mxGeometry x="320" y="765" width="70" height="30" as="geometry"/>
                </mxCell>
                <mxCell id="JreZ1okk4TFF5N9eNoXU-43" value="" style="rounded=0;whiteSpace=wrap;html=1;fontSize=31;" vertex="1" parent="FDRzwRMpqVcfgFtQDrqc-1">
                    <mxGeometry x="460" y="760" width="350" height="40" as="geometry"/>
                </mxCell>
                <mxCell id="JreZ1okk4TFF5N9eNoXU-44" value="Name" style="shape=process;whiteSpace=wrap;html=1;backgroundOutline=1;fontSize=31;" vertex="1" parent="FDRzwRMpqVcfgFtQDrqc-1">
                    <mxGeometry x="460" y="760" width="120" height="40" as="geometry"/>
                </mxCell>
                <mxCell id="JreZ1okk4TFF5N9eNoXU-45" value="$0.00" style="text;html=1;strokeColor=none;fillColor=none;align=center;verticalAlign=middle;whiteSpace=wrap;rounded=0;fontSize=31;" vertex="1" parent="FDRzwRMpqVcfgFtQDrqc-1">
                    <mxGeometry x="730" y="765" width="70" height="30" as="geometry"/>
                </mxCell>
                <mxCell id="JreZ1okk4TFF5N9eNoXU-46" value="" style="rounded=0;whiteSpace=wrap;html=1;fontSize=31;" vertex="1" parent="FDRzwRMpqVcfgFtQDrqc-1">
                    <mxGeometry x="50" y="820" width="350" height="40" as="geometry"/>
                </mxCell>
                <mxCell id="JreZ1okk4TFF5N9eNoXU-47" value="Name" style="shape=process;whiteSpace=wrap;html=1;backgroundOutline=1;fontSize=31;" vertex="1" parent="FDRzwRMpqVcfgFtQDrqc-1">
                    <mxGeometry x="50" y="820" width="120" height="40" as="geometry"/>
                </mxCell>
                <mxCell id="JreZ1okk4TFF5N9eNoXU-48" value="$0.00" style="text;html=1;strokeColor=none;fillColor=none;align=center;verticalAlign=middle;whiteSpace=wrap;rounded=0;fontSize=31;" vertex="1" parent="FDRzwRMpqVcfgFtQDrqc-1">
                    <mxGeometry x="320" y="825" width="70" height="30" as="geometry"/>
                </mxCell>
                <mxCell id="JreZ1okk4TFF5N9eNoXU-49" value="" style="rounded=0;whiteSpace=wrap;html=1;fontSize=31;" vertex="1" parent="FDRzwRMpqVcfgFtQDrqc-1">
                    <mxGeometry x="460" y="820" width="350" height="40" as="geometry"/>
                </mxCell>
                <mxCell id="JreZ1okk4TFF5N9eNoXU-50" value="Name" style="shape=process;whiteSpace=wrap;html=1;backgroundOutline=1;fontSize=31;" vertex="1" parent="FDRzwRMpqVcfgFtQDrqc-1">
                    <mxGeometry x="460" y="820" width="120" height="40" as="geometry"/>
                </mxCell>
                <mxCell id="JreZ1okk4TFF5N9eNoXU-51" value="$0.00" style="text;html=1;strokeColor=none;fillColor=none;align=center;verticalAlign=middle;whiteSpace=wrap;rounded=0;fontSize=31;" vertex="1" parent="FDRzwRMpqVcfgFtQDrqc-1">
                    <mxGeometry x="730" y="825" width="70" height="30" as="geometry"/>
                </mxCell>
                <mxCell id="JreZ1okk4TFF5N9eNoXU-52" value="" style="rounded=0;whiteSpace=wrap;html=1;fontSize=31;" vertex="1" parent="FDRzwRMpqVcfgFtQDrqc-1">
                    <mxGeometry x="50" y="880" width="350" height="40" as="geometry"/>
                </mxCell>
                <mxCell id="JreZ1okk4TFF5N9eNoXU-53" value="Name" style="shape=process;whiteSpace=wrap;html=1;backgroundOutline=1;fontSize=31;" vertex="1" parent="FDRzwRMpqVcfgFtQDrqc-1">
                    <mxGeometry x="50" y="880" width="120" height="40" as="geometry"/>
                </mxCell>
                <mxCell id="JreZ1okk4TFF5N9eNoXU-54" value="$0.00" style="text;html=1;strokeColor=none;fillColor=none;align=center;verticalAlign=middle;whiteSpace=wrap;rounded=0;fontSize=31;" vertex="1" parent="FDRzwRMpqVcfgFtQDrqc-1">
                    <mxGeometry x="320" y="885" width="70" height="30" as="geometry"/>
                </mxCell>
                <mxCell id="JreZ1okk4TFF5N9eNoXU-55" value="" style="rounded=0;whiteSpace=wrap;html=1;fontSize=31;" vertex="1" parent="FDRzwRMpqVcfgFtQDrqc-1">
                    <mxGeometry x="460" y="880" width="350" height="40" as="geometry"/>
                </mxCell>
                <mxCell id="JreZ1okk4TFF5N9eNoXU-56" value="Name" style="shape=process;whiteSpace=wrap;html=1;backgroundOutline=1;fontSize=31;" vertex="1" parent="FDRzwRMpqVcfgFtQDrqc-1">
                    <mxGeometry x="460" y="880" width="120" height="40" as="geometry"/>
                </mxCell>
                <mxCell id="JreZ1okk4TFF5N9eNoXU-57" value="$0.00" style="text;html=1;strokeColor=none;fillColor=none;align=center;verticalAlign=middle;whiteSpace=wrap;rounded=0;fontSize=31;" vertex="1" parent="FDRzwRMpqVcfgFtQDrqc-1">
                    <mxGeometry x="730" y="885" width="70" height="30" as="geometry"/>
                </mxCell>
                <mxCell id="JreZ1okk4TFF5N9eNoXU-58" value="" style="rounded=0;whiteSpace=wrap;html=1;fontSize=31;" vertex="1" parent="FDRzwRMpqVcfgFtQDrqc-1">
                    <mxGeometry x="50" y="940" width="350" height="40" as="geometry"/>
                </mxCell>
                <mxCell id="JreZ1okk4TFF5N9eNoXU-59" value="Name" style="shape=process;whiteSpace=wrap;html=1;backgroundOutline=1;fontSize=31;" vertex="1" parent="FDRzwRMpqVcfgFtQDrqc-1">
                    <mxGeometry x="50" y="940" width="120" height="40" as="geometry"/>
                </mxCell>
                <mxCell id="JreZ1okk4TFF5N9eNoXU-60" value="$0.00" style="text;html=1;strokeColor=none;fillColor=none;align=center;verticalAlign=middle;whiteSpace=wrap;rounded=0;fontSize=31;" vertex="1" parent="FDRzwRMpqVcfgFtQDrqc-1">
                    <mxGeometry x="320" y="945" width="70" height="30" as="geometry"/>
                </mxCell>
                <mxCell id="JreZ1okk4TFF5N9eNoXU-61" value="" style="rounded=0;whiteSpace=wrap;html=1;fontSize=31;" vertex="1" parent="FDRzwRMpqVcfgFtQDrqc-1">
                    <mxGeometry x="460" y="940" width="350" height="40" as="geometry"/>
                </mxCell>
                <mxCell id="JreZ1okk4TFF5N9eNoXU-62" value="Name" style="shape=process;whiteSpace=wrap;html=1;backgroundOutline=1;fontSize=31;" vertex="1" parent="FDRzwRMpqVcfgFtQDrqc-1">
                    <mxGeometry x="460" y="940" width="120" height="40" as="geometry"/>
                </mxCell>
                <mxCell id="JreZ1okk4TFF5N9eNoXU-63" value="$0.00" style="text;html=1;strokeColor=none;fillColor=none;align=center;verticalAlign=middle;whiteSpace=wrap;rounded=0;fontSize=31;" vertex="1" parent="FDRzwRMpqVcfgFtQDrqc-1">
                    <mxGeometry x="730" y="945" width="70" height="30" as="geometry"/>
                </mxCell>
                <mxCell id="JreZ1okk4TFF5N9eNoXU-64" value="" style="rounded=0;whiteSpace=wrap;html=1;fontSize=31;" vertex="1" parent="FDRzwRMpqVcfgFtQDrqc-1">
                    <mxGeometry x="50" y="1000" width="350" height="40" as="geometry"/>
                </mxCell>
                <mxCell id="JreZ1okk4TFF5N9eNoXU-65" value="Name" style="shape=process;whiteSpace=wrap;html=1;backgroundOutline=1;fontSize=31;" vertex="1" parent="FDRzwRMpqVcfgFtQDrqc-1">
                    <mxGeometry x="50" y="1000" width="120" height="40" as="geometry"/>
                </mxCell>
                <mxCell id="JreZ1okk4TFF5N9eNoXU-66" value="$0.00" style="text;html=1;strokeColor=none;fillColor=none;align=center;verticalAlign=middle;whiteSpace=wrap;rounded=0;fontSize=31;" vertex="1" parent="FDRzwRMpqVcfgFtQDrqc-1">
                    <mxGeometry x="320" y="1005" width="70" height="30" as="geometry"/>
                </mxCell>
                <mxCell id="JreZ1okk4TFF5N9eNoXU-67" value="" style="rounded=0;whiteSpace=wrap;html=1;fontSize=31;" vertex="1" parent="FDRzwRMpqVcfgFtQDrqc-1">
                    <mxGeometry x="460" y="1000" width="350" height="40" as="geometry"/>
                </mxCell>
                <mxCell id="JreZ1okk4TFF5N9eNoXU-68" value="Name" style="shape=process;whiteSpace=wrap;html=1;backgroundOutline=1;fontSize=31;" vertex="1" parent="FDRzwRMpqVcfgFtQDrqc-1">
                    <mxGeometry x="460" y="1000" width="120" height="40" as="geometry"/>
                </mxCell>
                <mxCell id="JreZ1okk4TFF5N9eNoXU-69" value="$0.00" style="text;html=1;strokeColor=none;fillColor=none;align=center;verticalAlign=middle;whiteSpace=wrap;rounded=0;fontSize=31;" vertex="1" parent="FDRzwRMpqVcfgFtQDrqc-1">
                    <mxGeometry x="730" y="1005" width="70" height="30" as="geometry"/>
                </mxCell>
            </root>
        </mxGraphModel>
    </diagram>
</mxfile>